<svg width="158" height="28" viewBox="0 0 158 28" fill="none" xmlns="http://www.w3.org/2000/svg">
<path d="M153.657 21.9215H153.606C153.178 22.5889 152.605 23.068 151.886 23.3589C151.185 23.6498 150.44 23.7952 149.653 23.7952C149.071 23.7952 148.507 23.7096 147.959 23.5385C147.429 23.3845 146.958 23.145 146.548 22.8199C146.137 22.4948 145.812 22.0926 145.572 21.6135C145.333 21.1344 145.213 20.5783 145.213 19.9452C145.213 19.2265 145.341 18.6191 145.598 18.1229C145.872 17.6266 146.231 17.216 146.676 16.8909C147.138 16.5658 147.66 16.3176 148.242 16.1465C148.823 15.9583 149.422 15.8214 150.038 15.7359C150.671 15.6503 151.296 15.599 151.912 15.5819C152.545 15.5648 153.127 15.5562 153.657 15.5562C153.657 14.8718 153.409 14.3328 152.913 13.9392C152.434 13.5285 151.861 13.3232 151.193 13.3232C150.56 13.3232 149.978 13.4601 149.448 13.7339C148.935 13.9905 148.473 14.3499 148.062 14.8119L146.009 12.7072C146.727 12.0399 147.566 11.5436 148.524 11.2185C149.482 10.8763 150.475 10.7052 151.501 10.7052C152.631 10.7052 153.555 10.8506 154.273 11.1415C155.009 11.4153 155.591 11.826 156.019 12.3735C156.463 12.9211 156.771 13.597 156.943 14.4012C157.114 15.1883 157.199 16.1038 157.199 17.1475V23.4872H153.657V21.9215ZM152.708 18.0202C152.417 18.0202 152.049 18.0373 151.604 18.0715C151.176 18.0886 150.757 18.1571 150.346 18.2769C149.953 18.3966 149.61 18.5763 149.32 18.8159C149.046 19.0554 148.909 19.3891 148.909 19.8169C148.909 20.2789 149.106 20.6211 149.499 20.8435C149.893 21.066 150.303 21.1772 150.731 21.1772C151.108 21.1772 151.467 21.1259 151.809 21.0232C152.169 20.9205 152.485 20.7751 152.759 20.5869C153.033 20.3986 153.247 20.1591 153.401 19.8682C153.572 19.5773 153.657 19.2351 153.657 18.8415V18.0202H152.708Z" fill="#006D76"/>
<path d="M139.212 4.08313H143.062V23.4871H139.212V4.08313Z" fill="#006D76"/>
<path d="M133.204 21.9215H133.153C132.725 22.5889 132.152 23.068 131.433 23.3589C130.732 23.6498 129.987 23.7952 129.2 23.7952C128.618 23.7952 128.054 23.7096 127.506 23.5385C126.976 23.3845 126.505 23.145 126.094 22.8199C125.684 22.4948 125.359 22.0926 125.119 21.6135C124.88 21.1344 124.76 20.5783 124.76 19.9452C124.76 19.2265 124.888 18.6191 125.145 18.1229C125.419 17.6266 125.778 17.216 126.223 16.8909C126.685 16.5658 127.207 16.3176 127.788 16.1465C128.37 15.9583 128.969 15.8214 129.585 15.7359C130.218 15.6503 130.843 15.599 131.459 15.5819C132.092 15.5648 132.674 15.5562 133.204 15.5562C133.204 14.8718 132.956 14.3328 132.46 13.9392C131.981 13.5285 131.407 13.3232 130.74 13.3232C130.107 13.3232 129.525 13.4601 128.995 13.7339C128.481 13.9905 128.019 14.3499 127.609 14.8119L125.555 12.7072C126.274 12.0399 127.113 11.5436 128.071 11.2185C129.029 10.8763 130.021 10.7052 131.048 10.7052C132.177 10.7052 133.101 10.8506 133.82 11.1415C134.556 11.4153 135.138 11.826 135.565 12.3735C136.01 12.9211 136.318 13.597 136.489 14.4012C136.661 15.1883 136.746 16.1038 136.746 17.1475V23.4872H133.204V21.9215ZM132.254 18.0202C131.964 18.0202 131.596 18.0373 131.151 18.0715C130.723 18.0886 130.304 18.1571 129.893 18.2769C129.5 18.3966 129.157 18.5763 128.866 18.8159C128.593 19.0554 128.456 19.3891 128.456 19.8169C128.456 20.2789 128.653 20.6211 129.046 20.8435C129.44 21.066 129.85 21.1772 130.278 21.1772C130.655 21.1772 131.014 21.1259 131.356 21.0232C131.715 20.9205 132.032 20.7751 132.306 20.5869C132.58 20.3986 132.793 20.1591 132.947 19.8682C133.119 19.5773 133.204 19.2351 133.204 18.8415V18.0202H132.254Z" fill="#006D76"/>
<path d="M114.486 4.08313V12.7071H114.537C114.623 12.4676 114.768 12.228 114.973 11.9885C115.179 11.7489 115.427 11.535 115.718 11.3468C116.009 11.1586 116.351 11.0046 116.744 10.8848C117.138 10.765 117.566 10.7051 118.028 10.7051C119.003 10.7051 119.79 10.8591 120.389 11.1671C120.988 11.458 121.45 11.8687 121.775 12.3991C122.117 12.9296 122.348 13.5541 122.468 14.2728C122.588 14.9915 122.648 15.77 122.648 16.6085V23.4871H118.798V17.3785C118.798 17.0191 118.781 16.6512 118.746 16.2748C118.729 15.8812 118.652 15.5219 118.515 15.1968C118.396 14.8717 118.199 14.6065 117.925 14.4011C117.668 14.1958 117.292 14.0931 116.796 14.0931C116.3 14.0931 115.897 14.1872 115.589 14.3755C115.281 14.5466 115.042 14.7861 114.871 15.0941C114.717 15.385 114.614 15.7187 114.563 16.0951C114.511 16.4716 114.486 16.8651 114.486 17.2758V23.4871H110.636V4.08313H114.486Z" fill="#006D76"/>
<path d="M96.376 4.08313H100.226V15.9411L104.487 11.0131H109.209L104.256 16.6341L109.338 23.4871H104.487L100.277 17.1731H100.226V23.4871H96.376V4.08313Z" fill="#006D76"/>
<path d="M81.6377 11.0132H85.3337V12.7072H85.385C85.5048 12.4676 85.6759 12.2281 85.8984 11.9885C86.1208 11.749 86.386 11.5351 86.694 11.3469C87.002 11.1586 87.3528 11.0046 87.7464 10.8849C88.1399 10.7651 88.5677 10.7052 89.0297 10.7052C90.005 10.7052 90.7921 10.8592 91.391 11.1672C91.9899 11.4581 92.4519 11.8688 92.777 12.3992C93.1192 12.9296 93.3502 13.5542 93.47 14.2729C93.5898 14.9915 93.6497 15.7701 93.6497 16.6085V23.4872H89.7997V17.3785C89.7997 17.0192 89.7826 16.6513 89.7484 16.2749C89.7312 15.8813 89.6543 15.522 89.5174 15.1969C89.3976 14.8718 89.2008 14.6065 88.927 14.4012C88.6704 14.1959 88.2939 14.0932 87.7977 14.0932C87.3015 14.0932 86.8994 14.1873 86.5914 14.3755C86.2834 14.5466 86.0438 14.7862 85.8727 15.0942C85.7187 15.3851 85.616 15.7188 85.5647 16.0952C85.5134 16.4716 85.4877 16.8652 85.4877 17.2759V23.4872H81.6377V11.0132Z" fill="#006D76"/>
<path d="M75.0209 11.013H78.8709V23.487H75.0209V11.013ZM74.7129 7.08603C74.7129 6.47003 74.9268 5.94814 75.3546 5.52036C75.7994 5.07547 76.3299 4.85303 76.9459 4.85303C77.5619 4.85303 78.0838 5.07547 78.5116 5.52036C78.9564 5.94814 79.1789 6.47003 79.1789 7.08603C79.1789 7.70203 78.9564 8.23247 78.5116 8.67736C78.0838 9.10514 77.5619 9.31903 76.9459 9.31903C76.3299 9.31903 75.7994 9.10514 75.3546 8.67736C74.9268 8.23247 74.7129 7.70203 74.7129 7.08603Z" fill="#006D76"/>
<path d="M64.5176 11.0132H68.3676V13.0152H68.4189C68.8296 12.2452 69.3172 11.672 69.8819 11.2955C70.4466 10.902 71.1567 10.7052 72.0122 10.7052C72.2347 10.7052 72.4571 10.7138 72.6796 10.7309C72.902 10.748 73.1074 10.7822 73.2956 10.8335V14.3499C73.0218 14.2643 72.748 14.2044 72.4742 14.1702C72.2176 14.1189 71.9438 14.0932 71.6529 14.0932C70.9171 14.0932 70.3354 14.1959 69.9076 14.4012C69.4798 14.6065 69.1461 14.8974 68.9066 15.2739C68.6841 15.6332 68.5387 16.0695 68.4702 16.5829C68.4018 17.0962 68.3676 17.6609 68.3676 18.2769V23.4872H64.5176V11.0132Z" fill="#006D76"/>
<path d="M53.6293 4.08313V12.7071H53.6806C53.7662 12.4676 53.9116 12.228 54.117 11.9885C54.3223 11.7489 54.5704 11.535 54.8613 11.3468C55.1522 11.1586 55.4944 11.0046 55.888 10.8848C56.2815 10.765 56.7093 10.7051 57.1713 10.7051C58.1466 10.7051 58.9337 10.8591 59.5326 11.1671C60.1315 11.458 60.5935 11.8687 60.9186 12.3991C61.2609 12.9296 61.4919 13.5541 61.6116 14.2728C61.7314 14.9915 61.7913 15.77 61.7913 16.6085V23.4871H57.9413V17.3785C57.9413 17.0191 57.9242 16.6512 57.89 16.2748C57.8729 15.8812 57.7959 15.5219 57.659 15.1968C57.5392 14.8717 57.3424 14.6065 57.0686 14.4011C56.812 14.1958 56.4355 14.0931 55.9393 14.0931C55.4431 14.0931 55.041 14.1872 54.733 14.3755C54.425 14.5466 54.1854 14.7861 54.0143 15.0941C53.8603 15.385 53.7576 15.7187 53.7063 16.0951C53.655 16.4716 53.6293 16.8651 53.6293 17.2758V23.4871H49.7793V4.08313H53.6293Z" fill="#006D76"/>
<path d="M44.5126 9.75536C44.1875 9.3447 43.7426 9.04525 43.1779 8.85703C42.6304 8.65169 42.1085 8.54903 41.6123 8.54903C41.3214 8.54903 41.0219 8.58325 40.7139 8.65169C40.4059 8.72014 40.1151 8.83136 39.8413 8.98536C39.5675 9.12225 39.3451 9.31047 39.1739 9.55003C39.0028 9.78958 38.9173 10.0805 38.9173 10.4227C38.9173 10.9703 39.1226 11.3895 39.5333 11.6804C39.9439 11.9713 40.4573 12.2194 41.0733 12.4247C41.7064 12.63 42.3823 12.8354 43.1009 13.0407C43.8196 13.246 44.4869 13.5369 45.1029 13.9134C45.7361 14.2898 46.2579 14.7946 46.6686 15.4277C47.0793 16.0608 47.2846 16.9078 47.2846 17.9687C47.2846 18.9783 47.0964 19.8595 46.7199 20.6124C46.3435 21.3653 45.8302 21.9898 45.1799 22.486C44.5468 22.9823 43.8025 23.3501 42.9469 23.5897C42.1085 23.8293 41.2187 23.949 40.2776 23.949C39.0969 23.949 38.0018 23.7694 36.9923 23.41C35.9827 23.0507 35.0416 22.4689 34.1689 21.6647L37.0179 18.5334C37.4286 19.0809 37.9419 19.5087 38.5579 19.8167C39.1911 20.1076 39.8413 20.253 40.5086 20.253C40.8337 20.253 41.1588 20.2188 41.4839 20.1504C41.8262 20.0648 42.1256 19.945 42.3823 19.791C42.6561 19.637 42.8699 19.4403 43.0239 19.2007C43.1951 18.9611 43.2806 18.6788 43.2806 18.3537C43.2806 17.8061 43.0667 17.3784 42.6389 17.0704C42.2283 16.7453 41.7064 16.4715 41.0733 16.249C40.4402 16.0266 39.7557 15.8041 39.0199 15.5817C38.2842 15.3593 37.5997 15.0598 36.9666 14.6834C36.3335 14.3069 35.8031 13.8107 35.3753 13.1947C34.9646 12.5787 34.7593 11.7659 34.7593 10.7564C34.7593 9.78103 34.9475 8.92547 35.3239 8.18969C35.7175 7.45392 36.2308 6.83792 36.8639 6.34169C37.5142 5.84547 38.2585 5.47758 39.0969 5.23803C39.9354 4.98136 40.7995 4.85303 41.6893 4.85303C42.7159 4.85303 43.7084 4.99847 44.6666 5.28936C45.6248 5.58025 46.4889 6.06792 47.2589 6.75236L44.5126 9.75536Z" fill="#006D76"/>
<rect width="28" height="28" rx="14" fill="#006D76"/>
<path fill-rule="evenodd" clip-rule="evenodd" d="M10.5474 5.99988H17.4565V11.9635H15.4186V7.45442H12.5853V9.23624H10.5474V5.99988ZM6.00195 10.3635H9.0565V12.4014H7.4565V15.4165H9.0565V17.4544H6.00195V10.3635ZM20.5474 12.4014H18.9474V10.3635H22.002V17.4544H18.9474V15.4165H20.5474V12.4014ZM10.5474 10.3256H12.5853V13.2726H17.4565V17.4559H15.4186V14.7272H10.5474V10.3256ZM12.5853 20.5453V16.0362H10.5474V21.9999H17.4565V18.5453H15.4186V20.5453H12.5853Z" fill="#FAFAFA"/>
</svg>
